<?xml version="1.0" encoding="utf-8"?>
<!-- Generator: Adobe Illustrator 24.1.2, SVG Export Plug-In . SVG Version: 6.00 Build 0)  -->
<svg version="1.1" id="Layer_1" xmlns="http://www.w3.org/2000/svg" xmlns:xlink="http://www.w3.org/1999/xlink" x="0px" y="0px"
	 viewBox="0 0 512 512" style="enable-background:new 0 0 512 512;" xml:space="preserve">
<style type="text/css">
	.st0{fill:#FFFFFF;}
</style>
<path class="st0" d="M456.3,114.7c-16.5,16.5-43.1,16.5-59.6,0c-16.4-16.4-16.4-43.2,0-59.6L412,39.9l59.6,59.6L456.3,114.7z
	 M506.5,87.6L423.7,4.8c-6.5-6.5-16.9-6.5-23.4,0l-27,27c-25.3,25.3-28.7,64.3-10.4,93.3L201.6,286.6l-62.3-62.3
	c-6.5-6.5-16.9-6.5-23.4,0l-61.7,61.7C12.6,327.5-6.6,387.1,2.9,445.2l7.1,43.6c1.1,7,6.6,12.5,13.6,13.6
	c46.5,7.6,54.4,9.5,73.1,9.5c48.2,0,95.2-19.1,129.8-53.7l61.7-61.7c6.5-6.5,6.5-16.9,0-23.4L260,344.9c-6.4-6.4-16.9-6.4-23.4,0
	l-47.7,47.7c-3.2,3.2-7.5,4.8-11.7,4.8c-14.6,0-22.1-17.8-11.7-28.2c88.4-88.4,132.4-132.4,220.8-220.8
	c28.6,18.1,67.6,15.3,93.3-10.4l27-27C512.8,105,513.5,94.6,506.5,87.6L506.5,87.6z"/>
</svg>
